<?xml version="1.0" encoding="ISO-8859-1" standalone="no"?>
<!DOCTYPE svg PUBLIC "-//W3C//DTD SVG 1.1//EN" "http://www.w3.org/Graphics/SVG/1.1/DTD/svg11.dtd">
<svg version="1.1" baseProfile="full" id="body" width="8in" height="8in" viewBox="0 0 1 1" preserveAspectRatio="none" xmlns="http://www.w3.org/2000/svg" xmlns:xlink="http://www.w3.org/1999/xlink" xmlns:ev="http://www.w3.org/2001/xml-events">
<title>SVG drawing</title>
<desc>This was produced by version 4.4 of GNU libplot, a free library for exporting 2-D vector graphics.</desc>
<rect id="background" x="0" y="0" width="1" height="1" stroke="none" fill="white"/>
<g id="content" transform="translate(0,1) scale(1,-1) scale(0.00024414) " xml:space="preserve" stroke="black" stroke-linecap="butt" stroke-linejoin="miter" stroke-miterlimit="10.433" stroke-dasharray="none" stroke-dashoffset="0" stroke-opacity="1" fill="none" fill-rule="evenodd" fill-opacity="1" font-style="normal" font-variant="normal" font-weight="normal" font-stretch="normal" font-size-adjust="none" letter-spacing="normal" word-spacing="normal" text-anchor="start">
<rect x="819.2" y="819.2" width="2457.6" height="2457.6" stroke-width="4.8188" />
<text transform="translate(783.33,662.21) scale(1,-1) scale(6.4512) " font-family="Helvetica,sans-serif" font-size="20px" stroke="none" fill="black" >0</text>
<line x1="819.2" y1="3276.8" x2="819.2" y2="3227.6" stroke-width="4.8188" />
<line x1="819.2" y1="819.2" x2="819.2" y2="868.35" stroke-width="4.8188" />
<text transform="translate(1274.9,662.21) scale(1,-1) scale(6.4512) " font-family="Helvetica,sans-serif" font-size="20px" stroke="none" fill="black" >2</text>
<line x1="1310.7" y1="3276.8" x2="1310.7" y2="3227.6" stroke-width="4.8188" />
<line x1="1310.7" y1="819.2" x2="1310.7" y2="868.35" stroke-width="4.8188" />
<text transform="translate(1766.4,662.21) scale(1,-1) scale(6.4512) " font-family="Helvetica,sans-serif" font-size="20px" stroke="none" fill="black" >4</text>
<line x1="1802.2" y1="3276.8" x2="1802.2" y2="3227.6" stroke-width="4.8188" />
<line x1="1802.2" y1="819.2" x2="1802.2" y2="868.35" stroke-width="4.8188" />
<text transform="translate(2257.9,662.21) scale(1,-1) scale(6.4512) " font-family="Helvetica,sans-serif" font-size="20px" stroke="none" fill="black" >6</text>
<line x1="2293.8" y1="3276.8" x2="2293.8" y2="3227.6" stroke-width="4.8188" />
<line x1="2293.8" y1="819.2" x2="2293.8" y2="868.35" stroke-width="4.8188" />
<text transform="translate(2749.4,662.21) scale(1,-1) scale(6.4512) " font-family="Helvetica,sans-serif" font-size="20px" stroke="none" fill="black" >8</text>
<line x1="2785.3" y1="3276.8" x2="2785.3" y2="3227.6" stroke-width="4.8188" />
<line x1="2785.3" y1="819.2" x2="2785.3" y2="868.35" stroke-width="4.8188" />
<text transform="translate(3205.1,662.21) scale(1,-1) scale(6.4512) " font-family="Helvetica,sans-serif" font-size="20px" stroke="none" fill="black" >10</text>
<line x1="3276.8" y1="3276.8" x2="3276.8" y2="3227.6" stroke-width="4.8188" />
<line x1="3276.8" y1="819.2" x2="3276.8" y2="868.35" stroke-width="4.8188" />
<line x1="819.2" y1="3276.8" x2="819.2" y2="3257.1" stroke-width="4.8188" />
<line x1="819.2" y1="819.2" x2="819.2" y2="838.86" stroke-width="4.8188" />
<line x1="1065" y1="3276.8" x2="1065" y2="3257.1" stroke-width="4.8188" />
<line x1="1065" y1="819.2" x2="1065" y2="838.86" stroke-width="4.8188" />
<line x1="1310.7" y1="3276.8" x2="1310.7" y2="3257.1" stroke-width="4.8188" />
<line x1="1310.7" y1="819.2" x2="1310.7" y2="838.86" stroke-width="4.8188" />
<line x1="1556.5" y1="3276.8" x2="1556.5" y2="3257.1" stroke-width="4.8188" />
<line x1="1556.5" y1="819.2" x2="1556.5" y2="838.86" stroke-width="4.8188" />
<line x1="1802.2" y1="3276.8" x2="1802.2" y2="3257.1" stroke-width="4.8188" />
<line x1="1802.2" y1="819.2" x2="1802.2" y2="838.86" stroke-width="4.8188" />
<line x1="2048" y1="3276.8" x2="2048" y2="3257.1" stroke-width="4.8188" />
<line x1="2048" y1="819.2" x2="2048" y2="838.86" stroke-width="4.8188" />
<line x1="2293.8" y1="3276.8" x2="2293.8" y2="3257.1" stroke-width="4.8188" />
<line x1="2293.8" y1="819.2" x2="2293.8" y2="838.86" stroke-width="4.8188" />
<line x1="2539.5" y1="3276.8" x2="2539.5" y2="3257.1" stroke-width="4.8188" />
<line x1="2539.5" y1="819.2" x2="2539.5" y2="838.86" stroke-width="4.8188" />
<line x1="2785.3" y1="3276.8" x2="2785.3" y2="3257.1" stroke-width="4.8188" />
<line x1="2785.3" y1="819.2" x2="2785.3" y2="838.86" stroke-width="4.8188" />
<line x1="3031" y1="3276.8" x2="3031" y2="3257.1" stroke-width="4.8188" />
<line x1="3031" y1="819.2" x2="3031" y2="838.86" stroke-width="4.8188" />
<line x1="3276.8" y1="3276.8" x2="3276.8" y2="3257.1" stroke-width="4.8188" />
<line x1="3276.8" y1="819.2" x2="3276.8" y2="838.86" stroke-width="4.8188" />
<text transform="translate(710.6,773.65) scale(1,-1) scale(6.4512) " font-family="Helvetica,sans-serif" font-size="20px" stroke="none" fill="black" >0</text>
<line x1="3276.8" y1="819.2" x2="3227.6" y2="819.2" stroke-width="4.8188" />
<line x1="819.2" y1="819.2" x2="868.35" y2="819.2" stroke-width="4.8188" />
<text transform="translate(710.6,1265.2) scale(1,-1) scale(6.4512) " font-family="Helvetica,sans-serif" font-size="20px" stroke="none" fill="black" >2</text>
<line x1="3276.8" y1="1310.7" x2="3227.6" y2="1310.7" stroke-width="4.8188" />
<line x1="819.2" y1="1310.7" x2="868.35" y2="1310.7" stroke-width="4.8188" />
<text transform="translate(710.6,1756.7) scale(1,-1) scale(6.4512) " font-family="Helvetica,sans-serif" font-size="20px" stroke="none" fill="black" >4</text>
<line x1="3276.8" y1="1802.2" x2="3227.6" y2="1802.2" stroke-width="4.8188" />
<line x1="819.2" y1="1802.2" x2="868.35" y2="1802.2" stroke-width="4.8188" />
<text transform="translate(710.6,2248.2) scale(1,-1) scale(6.4512) " font-family="Helvetica,sans-serif" font-size="20px" stroke="none" fill="black" >6</text>
<line x1="3276.8" y1="2293.8" x2="3227.6" y2="2293.8" stroke-width="4.8188" />
<line x1="819.2" y1="2293.8" x2="868.35" y2="2293.8" stroke-width="4.8188" />
<text transform="translate(710.6,2739.7) scale(1,-1) scale(6.4512) " font-family="Helvetica,sans-serif" font-size="20px" stroke="none" fill="black" >8</text>
<line x1="3276.8" y1="2785.3" x2="3227.6" y2="2785.3" stroke-width="4.8188" />
<line x1="819.2" y1="2785.3" x2="868.35" y2="2785.3" stroke-width="4.8188" />
<text transform="translate(638.86,3231.3) scale(1,-1) scale(6.4512) " font-family="Helvetica,sans-serif" font-size="20px" stroke="none" fill="black" >10</text>
<line x1="3276.8" y1="3276.8" x2="3227.6" y2="3276.8" stroke-width="4.8188" />
<line x1="819.2" y1="3276.8" x2="868.35" y2="3276.8" stroke-width="4.8188" />
<line x1="3276.8" y1="819.2" x2="3257.1" y2="819.2" stroke-width="4.8188" />
<line x1="819.2" y1="819.2" x2="838.86" y2="819.2" stroke-width="4.8188" />
<line x1="3276.8" y1="1065" x2="3257.1" y2="1065" stroke-width="4.8188" />
<line x1="819.2" y1="1065" x2="838.86" y2="1065" stroke-width="4.8188" />
<line x1="3276.8" y1="1310.7" x2="3257.1" y2="1310.7" stroke-width="4.8188" />
<line x1="819.2" y1="1310.7" x2="838.86" y2="1310.7" stroke-width="4.8188" />
<line x1="3276.8" y1="1556.5" x2="3257.1" y2="1556.5" stroke-width="4.8188" />
<line x1="819.2" y1="1556.5" x2="838.86" y2="1556.5" stroke-width="4.8188" />
<line x1="3276.8" y1="1802.2" x2="3257.1" y2="1802.2" stroke-width="4.8188" />
<line x1="819.2" y1="1802.2" x2="838.86" y2="1802.2" stroke-width="4.8188" />
<line x1="3276.8" y1="2048" x2="3257.1" y2="2048" stroke-width="4.8188" />
<line x1="819.2" y1="2048" x2="838.86" y2="2048" stroke-width="4.8188" />
<line x1="3276.8" y1="2293.8" x2="3257.1" y2="2293.8" stroke-width="4.8188" />
<line x1="819.2" y1="2293.8" x2="838.86" y2="2293.8" stroke-width="4.8188" />
<line x1="3276.8" y1="2539.5" x2="3257.1" y2="2539.5" stroke-width="4.8188" />
<line x1="819.2" y1="2539.5" x2="838.86" y2="2539.5" stroke-width="4.8188" />
<line x1="3276.8" y1="2785.3" x2="3257.1" y2="2785.3" stroke-width="4.8188" />
<line x1="819.2" y1="2785.3" x2="838.86" y2="2785.3" stroke-width="4.8188" />
<line x1="3276.8" y1="3031" x2="3257.1" y2="3031" stroke-width="4.8188" />
<line x1="819.2" y1="3031" x2="838.86" y2="3031" stroke-width="4.8188" />
<line x1="3276.8" y1="3276.8" x2="3257.1" y2="3276.8" stroke-width="4.8188" />
<line x1="819.2" y1="3276.8" x2="838.86" y2="3276.8" stroke-width="4.8188" />
<rect x="796.16" y="1041.9" width="46.08" height="46.08" stroke-width="2.304" fill="black" />
<rect x="1145.3" y="1174.7" width="46.08" height="46.08" stroke-width="2.304" fill="black" />
<rect x="1399.4" y="1127" width="46.08" height="46.08" stroke-width="2.304" fill="black" />
<rect x="1550.8" y="1309.5" width="46.08" height="46.08" stroke-width="2.304" fill="black" />
<rect x="1686.2" y="1543.8" width="46.08" height="46.08" stroke-width="2.304" fill="black" />
<rect x="1907.1" y="2268.6" width="46.08" height="46.08" stroke-width="2.304" fill="black" />
<rect x="2236.4" y="2239.3" width="46.08" height="46.08" stroke-width="2.304" fill="black" />
<rect x="2597.2" y="2590.4" width="46.08" height="46.08" stroke-width="2.304" fill="black" />
<rect x="2883.8" y="2858.5" width="46.08" height="46.08" stroke-width="2.304" fill="black" />
<rect x="3058.6" y="3198.9" width="46.08" height="46.08" stroke-width="2.304" fill="black" />
<polyline points="819.2,1065 821.66,1066.7 824.12,1068.4 826.57,1070.1 829.03,1071.8 831.49,1073.5 833.95,1075.3 836.4,1077 838.86,1078.7 841.32,1080.4 843.78,1082.1 846.23,1083.8 848.69,1085.5 851.15,1087.2 853.61,1088.9 856.06,1090.6 858.52,1092.3 860.98,1094 863.44,1095.6 865.89,1097.3 868.35,1099 870.81,1100.7 873.27,1102.3 875.72,1104 878.18,1105.6 880.64,1107.3 883.1,1108.9 885.56,1110.6 888.01,1112.2 890.47,1113.8 892.93,1115.4 895.39,1117 897.84,1118.6 900.3,1120.2 902.76,1121.8 905.22,1123.4 907.67,1125 910.13,1126.5 912.59,1128.1 915.05,1129.6 917.5,1131.2 919.96,1132.7 922.42,1134.2 924.88,1135.7 927.33,1137.2 929.79,1138.7 932.25,1140.2 934.71,1141.7 937.16,1143.1 939.62,1144.5 942.08,1146 944.54,1147.4 947,1148.8 949.45,1150.2 951.91,1151.6 954.37,1153 956.83,1154.3 959.28,1155.7 961.74,1157 964.2,1158.3 966.66,1159.6 969.11,1160.9 971.57,1162.2 974.03,1163.5 976.49,1164.7 978.94,1165.9 981.4,1167.2 983.86,1168.4 986.32,1169.5 988.77,1170.7 991.23,1171.9 993.69,1173 996.15,1174.1 998.6,1175.2 1001.1,1176.3 1003.5,1177.4 1006,1178.5 1008.4,1179.5 1010.9,1180.5 1013.4,1181.5 1015.8,1182.5 1018.3,1183.5 1020.7,1184.4 1023.2,1185.3 1025.6,1186.2 1028.1,1187.1 1030.6,1188 1033,1188.8 1035.5,1189.7 1037.9,1190.5 1040.4,1191.3 1042.8,1192 1045.3,1192.8 1047.8,1193.5 1050.2,1194.2 1052.7,1194.9 1055.1,1195.5 1057.6,1196.2 1060,1196.8 1062.5,1197.4 1065,1197.9 1067.4,1198.5 1069.9,1199 1072.3,1199.5 1074.8,1199.9 1077.2,1200.4 1079.7,1200.8 1082.2,1201.2 1084.6,1201.6 1087.1,1201.9 1089.5,1202.3 1092,1202.6 1094.5,1202.8 1096.9,1203.1 1099.4,1203.3 1101.8,1203.5 1104.3,1203.6 1106.7,1203.8 1109.2,1203.9 1111.7,1204 1114.1,1204 1116.6,1204.1 1119,1204.1 1121.5,1204 1123.9,1204 1126.4,1203.9 1128.9,1203.8 1131.3,1203.6 1133.8,1203.5 1136.2,1203.3 1138.7,1203 1141.1,1202.8 1143.6,1202.5 1146.1,1202.1 1148.5,1201.8 1151,1201.4 1153.4,1201 1155.9,1200.5 1158.3,1200 1160.8,1199.5 1163.3,1199 1165.7,1198.4 1168.2,1197.8 1170.6,1197.1 1173.1,1196.5 1175.6,1195.8 1178,1195 1180.5,1194.3 1182.9,1193.5 1185.4,1192.6 1187.8,1191.8 1190.3,1190.9 1192.8,1190 1195.2,1189.1 1197.7,1188.2 1200.1,1187.2 1202.6,1186.2 1205,1185.2 1207.5,1184.2 1210,1183.2 1212.4,1182.1 1214.9,1181.1 1217.3,1180 1219.8,1178.9 1222.2,1177.8 1224.7,1176.7 1227.2,1175.6 1229.6,1174.5 1232.1,1173.3 1234.5,1172.2 1237,1171.1 1239.4,1169.9 1241.9,1168.8 1244.4,1167.6 1246.8,1166.5 1249.3,1165.3 1251.7,1164.2 1254.2,1163 1256.7,1161.9 1259.1,1160.8 1261.6,1159.6 1264,1158.5 1266.5,1157.4 1268.9,1156.3 1271.4,1155.2 1273.9,1154.1 1276.3,1153 1278.8,1152 1281.2,1150.9 1283.7,1149.9 1286.1,1148.9 1288.6,1147.9 1291.1,1146.9 1293.5,1146 1296,1145 1298.4,1144.1 1300.9,1143.2 1303.3,1142.3 1305.8,1141.5 1308.3,1140.7 1310.7,1139.9 1313.2,1139.1 1315.6,1138.4 1318.1,1137.7 1320.6,1137 1323,1136.4 1325.5,1135.8 1327.9,1135.2 1330.4,1134.7 1332.8,1134.2 1335.3,1133.7 1337.8,1133.3 1340.2,1132.9 1342.7,1132.6 1345.1,1132.3 1347.6,1132 1350,1131.8 1352.5,1131.6 1355,1131.5 1357.4,1131.4 1359.9,1131.4 1362.3,1131.4 1364.8,1131.5 1367.2,1131.6 1369.7,1131.8 1372.2,1132 1374.6,1132.3 1377.1,1132.6 1379.5,1133 1382,1133.5 1384.4,1134 1386.9,1134.5 1389.4,1135.2 1391.8,1135.9 1394.3,1136.6 1396.7,1137.4 1399.2,1138.3 1401.7,1139.3 1404.1,1140.3 1406.6,1141.4 1409,1142.5 1411.5,1143.7 1413.9,1145 1416.4,1146.4 1418.9,1147.8 1421.3,1149.4 1423.8,1150.9 1426.2,1152.6 1428.7,1154.3 1431.1,1156.2 1433.6,1158 1436.1,1160 1438.5,1162 1441,1164.1 1443.4,1166.2 1445.9,1168.5 1448.3,1170.7 1450.8,1173.1 1453.3,1175.5 1455.7,1177.9 1458.2,1180.4 1460.6,1183 1463.1,1185.6 1465.5,1188.2 1468,1190.9 1470.5,1193.7 1472.9,1196.5 1475.4,1199.4 1477.8,1202.2 1480.3,1205.2 1482.8,1208.1 1485.2,1211.2 1487.7,1214.2 1490.1,1217.3 1492.6,1220.4 1495,1223.6 1497.5,1226.7 1500,1230 1502.4,1233.2 1504.9,1236.5 1507.3,1239.7 1509.8,1243.1 1512.2,1246.4 1514.7,1249.7 1517.2,1253.1 1519.6,1256.5 1522.1,1259.9 1524.5,1263.3 1527,1266.8 1529.4,1270.2 1531.9,1273.7 1534.4,1277.1 1536.8,1280.6 1539.3,1284.1 1541.7,1287.6 1544.2,1291 1546.6,1294.5 1549.1,1298 1551.6,1301.5 1554,1304.9 1556.5,1308.4 1558.9,1311.9 1561.4,1315.3 1563.9,1318.7 1566.3,1322.2 1568.8,1325.6 1571.2,1329 1573.7,1332.4 1576.1,1335.7 1578.6,1339.1 1581.1,1342.4 1583.5,1345.8 1586,1349.1 1588.4,1352.4 1590.9,1355.7 1593.3,1359 1595.8,1362.3 1598.3,1365.7 1600.7,1369 1603.2,1372.3 1605.6,1375.7 1608.1,1379.1 1610.5,1382.5 1613,1385.9 1615.5,1389.3 1617.9,1392.8 1620.4,1396.3 1622.8,1399.8 1625.3,1403.4 1627.8,1407 1630.2,1410.7 1632.7,1414.4 1635.1,1418.1 1637.6,1421.9 1640,1425.8 1642.5,1429.7 1645,1433.6 1647.4,1437.7 1649.9,1441.7 1652.3,1445.9 1654.8,1450.1 1657.2,1454.4 1659.7,1458.8 1662.2,1463.2 1664.6,1467.7 1667.1,1472.3 1669.5,1477 1672,1481.8 1674.4,1486.7 1676.9,1491.6 1679.4,1496.7 1681.8,1501.8 1684.3,1507.1 1686.7,1512.5 1689.2,1517.9 1691.6,1523.5 1694.1,1529.2 1696.6,1535 1699,1540.9 1701.5,1547 1703.9,1553.1 1706.4,1559.4 1708.9,1565.8 1711.3,1572.4 1713.8,1579.1 1716.2,1585.9 1718.7,1592.8 1721.1,1599.9 1723.6,1607 1726.1,1614.3 1728.5,1621.7 1731,1629.2 1733.4,1636.8 1735.9,1644.5 1738.3,1652.3 1740.8,1660.2 1743.3,1668.1 1745.7,1676.2 1748.2,1684.3 1750.6,1692.6 1753.1,1700.9 1755.5,1709.2 1758,1717.7 1760.5,1726.2 1762.9,1734.8 1765.4,1743.4 1767.8,1752.1 1770.3,1760.9 1772.7,1769.7 1775.2,1778.5 1777.7,1787.4 1780.1,1796.4 1782.6,1805.4 1785,1814.4 1787.5,1823.4 1790,1832.5 1792.4,1841.6 1794.9,1850.7 1797.3,1859.8 1799.8,1869 1802.2,1878.2 1804.7,1887.3 1807.2,1896.5 1809.6,1905.7 1812.1,1914.9 1814.5,1924.1 1817,1933.2 1819.4,1942.4 1821.9,1951.5 1824.4,1960.7 1826.8,1969.8 1829.3,1978.9 1831.7,1987.9 1834.2,1997 1836.6,2006 1839.1,2014.9 1841.6,2023.8 1844,2032.7 1846.5,2041.6 1848.9,2050.3 1851.4,2059.1 1853.8,2067.7 1856.3,2076.4 1858.8,2084.9 1861.2,2093.4 1863.7,2101.8 1866.1,2110.2 1868.6,2118.4 1871.1,2126.6 1873.5,2134.8 1876,2142.8 1878.4,2150.7 1880.9,2158.6 1883.3,2166.3 1885.8,2174 1888.3,2181.5 1890.7,2189 1893.2,2196.3 1895.6,2203.5 1898.1,2210.7 1900.5,2217.7 1903,2224.5 1905.5,2231.3 1907.9,2237.9 1910.4,2244.4 1912.8,2250.8 1915.3,2257 1917.7,2263.1 1920.2,2269 1922.7,2274.8 1925.1,2280.5 1927.6,2286 1930,2291.3 1932.5,2296.5 1935,2301.5 1937.4,2306.4 1939.9,2311.1 1942.3,2315.6 1944.8,2320 1947.2,2324.3 1949.7,2328.4 1952.2,2332.4 1954.6,2336.2 1957.1,2339.9 1959.5,2343.4 1962,2346.8 1964.4,2350.1 1966.9,2353.2 1969.4,2356.2 1971.8,2359 1974.3,2361.8 1976.7,2364.4 1979.2,2366.8 1981.6,2369.2 1984.1,2371.4 1986.6,2373.5 1989,2375.5 1991.5,2377.4 1993.9,2379.1 1996.4,2380.8 1998.8,2382.3 2001.3,2383.7 2003.8,2385 2006.2,2386.2 2008.7,2387.3 2011.1,2388.3 2013.6,2389.2 2016.1,2390 2018.5,2390.6 2021,2391.2 2023.4,2391.7 2025.9,2392.1 2028.3,2392.4 2030.8,2392.7 2033.3,2392.8 2035.7,2392.8 2038.2,2392.8 2040.6,2392.7 2043.1,2392.5 2045.5,2392.2 " stroke-width="4.8188" />
<polyline points="2045.5,2392.2 2048,2391.8 2050.5,2391.4 2052.9,2390.9 2055.4,2390.3 2057.8,2389.6 2060.3,2388.9 2062.7,2388.1 2065.2,2387.3 2067.7,2386.3 2070.1,2385.4 2072.6,2384.3 2075,2383.2 2077.5,2382.1 2079.9,2380.9 2082.4,2379.6 2084.9,2378.3 2087.3,2376.9 2089.8,2375.5 2092.2,2374 2094.7,2372.5 2097.2,2371 2099.6,2369.4 2102.1,2367.8 2104.5,2366.1 2107,2364.4 2109.4,2362.7 2111.9,2360.9 2114.4,2359.1 2116.8,2357.3 2119.3,2355.5 2121.7,2353.6 2124.2,2351.7 2126.6,2349.8 2129.1,2347.8 2131.6,2345.9 2134,2343.9 2136.5,2341.9 2138.9,2339.9 2141.4,2337.9 2143.8,2335.8 2146.3,2333.8 2148.8,2331.8 2151.2,2329.7 2153.7,2327.7 2156.1,2325.6 2158.6,2323.6 2161,2321.6 2163.5,2319.5 2166,2317.5 2168.4,2315.5 2170.9,2313.5 2173.3,2311.5 2175.8,2309.5 2178.3,2307.5 2180.7,2305.5 2183.2,2303.6 2185.6,2301.7 2188.1,2299.8 2190.5,2297.9 2193,2296.1 2195.5,2294.3 2197.9,2292.5 2200.4,2290.7 2202.8,2289 2205.3,2287.3 2207.7,2285.6 2210.2,2284 2212.7,2282.5 2215.1,2280.9 2217.6,2279.4 2220,2278 2222.5,2276.6 2224.9,2275.2 2227.4,2273.9 2229.9,2272.7 2232.3,2271.5 2234.8,2270.3 2237.2,2269.2 2239.7,2268.2 2242.2,2267.2 2244.6,2266.3 2247.1,2265.5 2249.5,2264.7 2252,2264 2254.4,2263.4 2256.9,2262.8 2259.4,2262.3 2261.8,2261.9 2264.3,2261.6 2266.7,2261.3 2269.2,2261.1 2271.6,2261 2274.1,2260.9 2276.6,2260.9 2279,2261 2281.5,2261.1 2283.9,2261.4 2286.4,2261.7 2288.8,2262 2291.3,2262.4 2293.8,2262.9 2296.2,2263.5 2298.7,2264.1 2301.1,2264.7 2303.6,2265.5 2306,2266.3 2308.5,2267.1 2311,2268.1 2313.4,2269 2315.9,2270.1 2318.3,2271.2 2320.8,2272.3 2323.3,2273.5 2325.7,2274.8 2328.2,2276.1 2330.6,2277.5 2333.1,2278.9 2335.5,2280.4 2338,2281.9 2340.5,2283.5 2342.9,2285.1 2345.4,2286.8 2347.8,2288.5 2350.3,2290.3 2352.7,2292.1 2355.2,2294 2357.7,2295.9 2360.1,2297.9 2362.6,2299.9 2365,2302 2367.5,2304.1 2369.9,2306.2 2372.4,2308.4 2374.9,2310.6 2377.3,2312.9 2379.8,2315.2 2382.2,2317.5 2384.7,2319.9 2387.1,2322.3 2389.6,2324.7 2392.1,2327.2 2394.5,2329.8 2397,2332.3 2399.4,2334.9 2401.9,2337.5 2404.4,2340.2 2406.8,2342.9 2409.3,2345.6 2411.7,2348.3 2414.2,2351.1 2416.6,2353.9 2419.1,2356.7 2421.6,2359.6 2424,2362.5 2426.5,2365.4 2428.9,2368.3 2431.4,2371.3 2433.8,2374.3 2436.3,2377.3 2438.8,2380.3 2441.2,2383.4 2443.7,2386.4 2446.1,2389.5 2448.6,2392.6 2451,2395.8 2453.5,2398.9 2456,2402.1 2458.4,2405.2 2460.9,2408.4 2463.3,2411.6 2465.8,2414.9 2468.2,2418.1 2470.7,2421.4 2473.2,2424.6 2475.6,2427.9 2478.1,2431.2 2480.5,2434.4 2483,2437.7 2485.5,2441.1 2487.9,2444.4 2490.4,2447.7 2492.8,2451 2495.3,2454.3 2497.7,2457.7 2500.2,2461 2502.7,2464.4 2505.1,2467.7 2507.6,2471 2510,2474.4 2512.5,2477.7 2514.9,2481.1 2517.4,2484.4 2519.9,2487.8 2522.3,2491.1 2524.8,2494.4 2527.2,2497.8 2529.7,2501.1 2532.1,2504.4 2534.6,2507.7 2537.1,2511 2539.5,2514.3 2542,2517.6 2544.4,2520.9 2546.9,2524.2 2549.4,2527.4 2551.8,2530.7 2554.3,2533.9 2556.7,2537.1 2559.2,2540.3 2561.6,2543.5 2564.1,2546.7 2566.6,2549.8 2569,2553 2571.5,2556.1 2573.9,2559.2 2576.4,2562.3 2578.8,2565.4 2581.3,2568.4 2583.8,2571.4 2586.2,2574.5 2588.7,2577.4 2591.1,2580.4 2593.6,2583.3 2596,2586.2 2598.5,2589.1 2601,2592 2603.4,2594.8 2605.9,2597.6 2608.3,2600.4 2610.8,2603.1 2613.2,2605.8 2615.7,2608.5 2618.2,2611.2 2620.6,2613.8 2623.1,2616.4 2625.5,2618.9 2628,2621.4 2630.5,2623.9 2632.9,2626.4 2635.4,2628.8 2637.8,2631.2 2640.3,2633.6 2642.7,2636 2645.2,2638.3 2647.7,2640.6 2650.1,2642.9 2652.6,2645.1 2655,2647.3 2657.5,2649.5 2659.9,2651.7 2662.4,2653.9 2664.9,2656 2667.3,2658.1 2669.8,2660.2 2672.2,2662.3 2674.7,2664.4 2677.1,2666.4 2679.6,2668.4 2682.1,2670.5 2684.5,2672.5 2687,2674.4 2689.4,2676.4 2691.9,2678.4 2694.3,2680.3 2696.8,2682.2 2699.3,2684.2 2701.7,2686.1 2704.2,2688 2706.6,2689.9 2709.1,2691.8 2711.6,2693.6 2714,2695.5 2716.5,2697.4 2718.9,2699.2 2721.4,2701.1 2723.8,2703 2726.3,2704.8 2728.8,2706.7 2731.2,2708.5 2733.7,2710.4 2736.1,2712.2 2738.6,2714 2741,2715.9 2743.5,2717.7 2746,2719.6 2748.4,2721.5 2750.9,2723.3 2753.3,2725.2 2755.8,2727.1 2758.2,2728.9 2760.7,2730.8 2763.2,2732.7 2765.6,2734.6 2768.1,2736.5 2770.5,2738.4 2773,2740.4 2775.4,2742.3 2777.9,2744.3 2780.4,2746.2 2782.8,2748.2 2785.3,2750.2 2787.7,2752.2 2790.2,2754.2 2792.7,2756.3 2795.1,2758.3 2797.6,2760.4 2800,2762.5 2802.5,2764.6 2804.9,2766.7 2807.4,2768.9 2809.9,2771.1 2812.3,2773.3 2814.8,2775.5 2817.2,2777.7 2819.7,2780 2822.1,2782.3 2824.6,2784.6 2827.1,2786.9 2829.5,2789.3 2832,2791.7 2834.4,2794.1 2836.9,2796.6 2839.3,2799.1 2841.8,2801.6 2844.3,2804.1 2846.7,2806.7 2849.2,2809.3 2851.6,2811.9 2854.1,2814.6 2856.6,2817.3 2859,2820.1 2861.5,2822.8 2863.9,2825.7 2866.4,2828.5 2868.8,2831.4 2871.3,2834.4 2873.8,2837.3 2876.2,2840.3 2878.7,2843.4 2881.1,2846.5 2883.6,2849.6 2886,2852.8 2888.5,2856 2891,2859.3 2893.4,2862.6 2895.9,2866 2898.3,2869.4 2900.8,2872.8 2903.2,2876.4 2905.7,2879.9 2908.2,2883.5 2910.6,2887.2 2913.1,2890.9 2915.5,2894.6 2918,2898.4 2920.4,2902.2 2922.9,2906.1 2925.4,2910.1 2927.8,2914 2930.3,2918.1 2932.7,2922.1 2935.2,2926.2 2937.7,2930.4 2940.1,2934.6 2942.6,2938.8 2945,2943.1 2947.5,2947.4 2949.9,2951.8 2952.4,2956.1 2954.9,2960.6 2957.3,2965 2959.8,2969.5 2962.2,2974 2964.7,2978.6 2967.1,2983.2 2969.6,2987.8 2972.1,2992.5 2974.5,2997.2 2977,3001.9 2979.4,3006.7 2981.9,3011.5 2984.3,3016.3 2986.8,3021.1 2989.3,3026 2991.7,3030.9 2994.2,3035.8 2996.6,3040.7 2999.1,3045.7 3001.5,3050.7 3004,3055.7 3006.5,3060.7 3008.9,3065.8 3011.4,3070.9 3013.8,3076 3016.3,3081.1 3018.8,3086.2 3021.2,3091.4 3023.7,3096.6 3026.1,3101.7 3028.6,3106.9 3031,3112.2 3033.5,3117.4 3036,3122.6 3038.4,3127.9 3040.9,3133.2 3043.3,3138.5 3045.8,3143.8 3048.2,3149.1 3050.7,3154.4 3053.2,3159.7 3055.6,3165 3058.1,3170.4 3060.5,3175.7 3063,3181.1 3065.4,3186.4 3067.9,3191.8 3070.4,3197.2 3072.8,3202.5 3075.3,3207.9 3077.7,3213.3 3080.2,3218.7 " stroke-width="4.8188" />
</g>
</svg>
